<mxfile host="app.diagrams.net" agent="Mozilla/5.0 (Macintosh; Intel Mac OS X 10_15_7) AppleWebKit/605.1.15 (KHTML, like Gecko) Version/17.6 Safari/605.1.15" version="24.9.1">
  <diagram name="Page-1" id="lmDEMUQMTWGSZZMK8TKA">
    <mxGraphModel dx="1713" dy="664" grid="1" gridSize="10" guides="1" tooltips="1" connect="1" arrows="1" fold="1" page="1" pageScale="1" pageWidth="827" pageHeight="1169" math="0" shadow="0">
      <root>
        <mxCell id="0" />
        <mxCell id="1" parent="0" />
        <mxCell id="c5G7v532kEOwFp9C76IE-31" style="edgeStyle=none;shape=connector;rounded=0;orthogonalLoop=1;jettySize=auto;html=1;exitX=0.5;exitY=1;exitDx=0;exitDy=0;entryX=0.5;entryY=0;entryDx=0;entryDy=0;strokeColor=default;align=center;verticalAlign=middle;fontFamily=Helvetica;fontSize=11;fontColor=default;labelBackgroundColor=default;endArrow=none;endFill=0;" edge="1" parent="1" source="c5G7v532kEOwFp9C76IE-1" target="c5G7v532kEOwFp9C76IE-28">
          <mxGeometry relative="1" as="geometry" />
        </mxCell>
        <mxCell id="c5G7v532kEOwFp9C76IE-41" style="edgeStyle=none;shape=connector;rounded=0;orthogonalLoop=1;jettySize=auto;html=1;exitX=1;exitY=0.5;exitDx=0;exitDy=0;entryX=0;entryY=0.5;entryDx=0;entryDy=0;strokeColor=default;align=center;verticalAlign=middle;fontFamily=Helvetica;fontSize=11;fontColor=default;labelBackgroundColor=default;endArrow=none;endFill=0;" edge="1" parent="1" source="c5G7v532kEOwFp9C76IE-1" target="c5G7v532kEOwFp9C76IE-39">
          <mxGeometry relative="1" as="geometry" />
        </mxCell>
        <mxCell id="c5G7v532kEOwFp9C76IE-1" value="" style="rounded=0;whiteSpace=wrap;html=1;" vertex="1" parent="1">
          <mxGeometry x="210" y="150" width="90" height="40" as="geometry" />
        </mxCell>
        <mxCell id="c5G7v532kEOwFp9C76IE-44" style="edgeStyle=none;shape=link;rounded=0;orthogonalLoop=1;jettySize=auto;html=1;exitX=1;exitY=0.5;exitDx=0;exitDy=0;strokeColor=default;align=center;verticalAlign=middle;fontFamily=Helvetica;fontSize=11;fontColor=default;labelBackgroundColor=default;endArrow=none;endFill=0;" edge="1" parent="1" source="c5G7v532kEOwFp9C76IE-22" target="c5G7v532kEOwFp9C76IE-37">
          <mxGeometry relative="1" as="geometry" />
        </mxCell>
        <mxCell id="c5G7v532kEOwFp9C76IE-22" value="" style="rounded=0;whiteSpace=wrap;html=1;fontFamily=Helvetica;fontSize=11;fontColor=default;labelBackgroundColor=default;" vertex="1" parent="1">
          <mxGeometry x="210" y="300" width="90" height="40" as="geometry" />
        </mxCell>
        <mxCell id="c5G7v532kEOwFp9C76IE-24" style="edgeStyle=none;shape=connector;rounded=0;orthogonalLoop=1;jettySize=auto;html=1;exitX=1;exitY=0;exitDx=0;exitDy=0;entryX=0;entryY=1;entryDx=0;entryDy=0;strokeColor=default;align=center;verticalAlign=middle;fontFamily=Helvetica;fontSize=11;fontColor=default;labelBackgroundColor=default;endArrow=none;endFill=0;" edge="1" parent="1" source="c5G7v532kEOwFp9C76IE-23" target="c5G7v532kEOwFp9C76IE-22">
          <mxGeometry relative="1" as="geometry" />
        </mxCell>
        <mxCell id="c5G7v532kEOwFp9C76IE-23" value="id" style="ellipse;whiteSpace=wrap;html=1;fontFamily=Helvetica;fontSize=11;fontColor=default;labelBackgroundColor=default;fontStyle=4" vertex="1" parent="1">
          <mxGeometry x="130" y="370" width="60" height="30" as="geometry" />
        </mxCell>
        <mxCell id="c5G7v532kEOwFp9C76IE-34" style="edgeStyle=none;shape=connector;rounded=0;orthogonalLoop=1;jettySize=auto;html=1;exitX=0.5;exitY=0;exitDx=0;exitDy=0;entryX=0.5;entryY=1;entryDx=0;entryDy=0;strokeColor=default;align=center;verticalAlign=middle;fontFamily=Helvetica;fontSize=11;fontColor=default;labelBackgroundColor=default;endArrow=none;endFill=0;" edge="1" parent="1" source="c5G7v532kEOwFp9C76IE-25" target="c5G7v532kEOwFp9C76IE-22">
          <mxGeometry relative="1" as="geometry" />
        </mxCell>
        <mxCell id="c5G7v532kEOwFp9C76IE-25" value="quantity" style="ellipse;whiteSpace=wrap;html=1;fontFamily=Helvetica;fontSize=11;fontColor=default;labelBackgroundColor=default;" vertex="1" parent="1">
          <mxGeometry x="220" y="370" width="80" height="40" as="geometry" />
        </mxCell>
        <mxCell id="c5G7v532kEOwFp9C76IE-27" value="unit" style="ellipse;whiteSpace=wrap;html=1;fontFamily=Helvetica;fontSize=11;fontColor=default;labelBackgroundColor=default;fontStyle=4" vertex="1" parent="1">
          <mxGeometry x="250" y="100" width="60" height="30" as="geometry" />
        </mxCell>
        <mxCell id="c5G7v532kEOwFp9C76IE-30" style="edgeStyle=none;shape=link;rounded=0;orthogonalLoop=1;jettySize=auto;html=1;exitX=0.5;exitY=1;exitDx=0;exitDy=0;entryX=0.5;entryY=0;entryDx=0;entryDy=0;strokeColor=default;align=center;verticalAlign=middle;fontFamily=Helvetica;fontSize=11;fontColor=default;labelBackgroundColor=default;endArrow=none;endFill=0;" edge="1" parent="1" source="c5G7v532kEOwFp9C76IE-28" target="c5G7v532kEOwFp9C76IE-22">
          <mxGeometry relative="1" as="geometry" />
        </mxCell>
        <mxCell id="c5G7v532kEOwFp9C76IE-28" value="is" style="rhombus;whiteSpace=wrap;html=1;fontFamily=Helvetica;fontSize=11;fontColor=default;labelBackgroundColor=default;" vertex="1" parent="1">
          <mxGeometry x="220" y="230" width="70" height="40" as="geometry" />
        </mxCell>
        <mxCell id="c5G7v532kEOwFp9C76IE-29" value="" style="endArrow=none;html=1;rounded=0;strokeColor=default;align=center;verticalAlign=middle;fontFamily=Helvetica;fontSize=11;fontColor=default;labelBackgroundColor=default;exitX=0.75;exitY=0;exitDx=0;exitDy=0;entryX=0.5;entryY=1;entryDx=0;entryDy=0;" edge="1" parent="1" source="c5G7v532kEOwFp9C76IE-1" target="c5G7v532kEOwFp9C76IE-27">
          <mxGeometry width="50" height="50" relative="1" as="geometry">
            <mxPoint x="380" y="350" as="sourcePoint" />
            <mxPoint x="430" y="300" as="targetPoint" />
          </mxGeometry>
        </mxCell>
        <mxCell id="c5G7v532kEOwFp9C76IE-32" value="N" style="text;html=1;align=center;verticalAlign=middle;resizable=0;points=[];autosize=1;strokeColor=none;fillColor=none;fontFamily=Helvetica;fontSize=11;fontColor=default;labelBackgroundColor=default;" vertex="1" parent="1">
          <mxGeometry x="250" y="260" width="30" height="30" as="geometry" />
        </mxCell>
        <mxCell id="c5G7v532kEOwFp9C76IE-33" value="1" style="text;html=1;align=center;verticalAlign=middle;resizable=0;points=[];autosize=1;strokeColor=none;fillColor=none;fontFamily=Helvetica;fontSize=11;fontColor=default;labelBackgroundColor=default;" vertex="1" parent="1">
          <mxGeometry x="250" y="208" width="30" height="30" as="geometry" />
        </mxCell>
        <mxCell id="c5G7v532kEOwFp9C76IE-36" value="Event" style="rounded=0;whiteSpace=wrap;html=1;fontFamily=Helvetica;fontSize=11;fontColor=default;labelBackgroundColor=default;" vertex="1" parent="1">
          <mxGeometry x="560" y="300" width="80" height="40" as="geometry" />
        </mxCell>
        <mxCell id="c5G7v532kEOwFp9C76IE-45" style="edgeStyle=none;shape=connector;rounded=0;orthogonalLoop=1;jettySize=auto;html=1;exitX=1;exitY=0.5;exitDx=0;exitDy=0;entryX=0;entryY=0.5;entryDx=0;entryDy=0;strokeColor=default;align=center;verticalAlign=middle;fontFamily=Helvetica;fontSize=11;fontColor=default;labelBackgroundColor=default;endArrow=none;endFill=0;" edge="1" parent="1" source="c5G7v532kEOwFp9C76IE-37" target="c5G7v532kEOwFp9C76IE-36">
          <mxGeometry relative="1" as="geometry" />
        </mxCell>
        <mxCell id="c5G7v532kEOwFp9C76IE-37" value="" style="rhombus;whiteSpace=wrap;html=1;fontFamily=Helvetica;fontSize=11;fontColor=default;labelBackgroundColor=default;" vertex="1" parent="1">
          <mxGeometry x="365" y="292.5" width="120" height="55" as="geometry" />
        </mxCell>
        <mxCell id="c5G7v532kEOwFp9C76IE-39" value="OCR_keywords" style="ellipse;whiteSpace=wrap;html=1;fontFamily=Helvetica;fontSize=11;fontColor=default;labelBackgroundColor=default;" vertex="1" parent="1">
          <mxGeometry x="330" y="150" width="100" height="40" as="geometry" />
        </mxCell>
        <mxCell id="c5G7v532kEOwFp9C76IE-48" style="edgeStyle=none;shape=connector;rounded=0;orthogonalLoop=1;jettySize=auto;html=1;exitX=1;exitY=0;exitDx=0;exitDy=0;entryX=0.25;entryY=1;entryDx=0;entryDy=0;strokeColor=default;align=center;verticalAlign=middle;fontFamily=Helvetica;fontSize=11;fontColor=default;labelBackgroundColor=default;endArrow=none;endFill=0;" edge="1" parent="1" source="c5G7v532kEOwFp9C76IE-42" target="c5G7v532kEOwFp9C76IE-36">
          <mxGeometry relative="1" as="geometry" />
        </mxCell>
        <mxCell id="c5G7v532kEOwFp9C76IE-42" value="id" style="ellipse;whiteSpace=wrap;html=1;fontFamily=Helvetica;fontSize=11;fontColor=default;labelBackgroundColor=default;fontStyle=4" vertex="1" parent="1">
          <mxGeometry x="530" y="360" width="50" height="30" as="geometry" />
        </mxCell>
        <mxCell id="c5G7v532kEOwFp9C76IE-49" style="edgeStyle=none;shape=connector;rounded=0;orthogonalLoop=1;jettySize=auto;html=1;exitX=0.5;exitY=0;exitDx=0;exitDy=0;entryX=0.75;entryY=1;entryDx=0;entryDy=0;strokeColor=default;align=center;verticalAlign=middle;fontFamily=Helvetica;fontSize=11;fontColor=default;labelBackgroundColor=default;endArrow=none;endFill=0;" edge="1" parent="1" source="c5G7v532kEOwFp9C76IE-43" target="c5G7v532kEOwFp9C76IE-36">
          <mxGeometry relative="1" as="geometry" />
        </mxCell>
        <mxCell id="c5G7v532kEOwFp9C76IE-43" value="name" style="ellipse;whiteSpace=wrap;html=1;fontFamily=Helvetica;fontSize=11;fontColor=default;labelBackgroundColor=default;" vertex="1" parent="1">
          <mxGeometry x="610" y="360" width="80" height="40" as="geometry" />
        </mxCell>
        <mxCell id="c5G7v532kEOwFp9C76IE-46" value="N" style="text;html=1;align=center;verticalAlign=middle;resizable=0;points=[];autosize=1;strokeColor=none;fillColor=none;fontFamily=Helvetica;fontSize=11;fontColor=default;labelBackgroundColor=default;" vertex="1" parent="1">
          <mxGeometry x="350" y="292.5" width="30" height="30" as="geometry" />
        </mxCell>
        <mxCell id="c5G7v532kEOwFp9C76IE-47" value="1" style="text;html=1;align=center;verticalAlign=middle;resizable=0;points=[];autosize=1;strokeColor=none;fillColor=none;fontFamily=Helvetica;fontSize=11;fontColor=default;labelBackgroundColor=default;" vertex="1" parent="1">
          <mxGeometry x="480" y="292.5" width="30" height="30" as="geometry" />
        </mxCell>
        <mxCell id="c5G7v532kEOwFp9C76IE-51" style="edgeStyle=none;shape=connector;rounded=0;orthogonalLoop=1;jettySize=auto;html=1;exitX=0.5;exitY=1;exitDx=0;exitDy=0;entryX=0.75;entryY=0;entryDx=0;entryDy=0;strokeColor=default;align=center;verticalAlign=middle;fontFamily=Helvetica;fontSize=11;fontColor=default;labelBackgroundColor=default;endArrow=none;endFill=0;" edge="1" parent="1" source="c5G7v532kEOwFp9C76IE-50" target="c5G7v532kEOwFp9C76IE-36">
          <mxGeometry relative="1" as="geometry" />
        </mxCell>
        <mxCell id="c5G7v532kEOwFp9C76IE-50" value="creation_time" style="ellipse;whiteSpace=wrap;html=1;fontFamily=Helvetica;fontSize=11;fontColor=default;labelBackgroundColor=default;" vertex="1" parent="1">
          <mxGeometry x="580" y="238" width="90" height="40" as="geometry" />
        </mxCell>
        <mxCell id="c5G7v532kEOwFp9C76IE-56" style="edgeStyle=none;shape=connector;rounded=0;orthogonalLoop=1;jettySize=auto;html=1;exitX=1;exitY=0.5;exitDx=0;exitDy=0;entryX=0;entryY=0.5;entryDx=0;entryDy=0;strokeColor=default;align=center;verticalAlign=middle;fontFamily=Helvetica;fontSize=11;fontColor=default;labelBackgroundColor=default;endArrow=none;endFill=0;" edge="1" parent="1" source="c5G7v532kEOwFp9C76IE-52" target="c5G7v532kEOwFp9C76IE-53">
          <mxGeometry relative="1" as="geometry" />
        </mxCell>
        <mxCell id="c5G7v532kEOwFp9C76IE-52" value="desc" style="ellipse;whiteSpace=wrap;html=1;fontFamily=Helvetica;fontSize=11;fontColor=default;labelBackgroundColor=default;" vertex="1" parent="1">
          <mxGeometry x="-170" y="155" width="60" height="35" as="geometry" />
        </mxCell>
        <mxCell id="c5G7v532kEOwFp9C76IE-63" style="edgeStyle=none;shape=connector;rounded=0;orthogonalLoop=1;jettySize=auto;html=1;exitX=1;exitY=0.5;exitDx=0;exitDy=0;entryX=0;entryY=0.5;entryDx=0;entryDy=0;strokeColor=default;align=center;verticalAlign=middle;fontFamily=Helvetica;fontSize=11;fontColor=default;labelBackgroundColor=default;endArrow=none;endFill=0;" edge="1" parent="1" source="c5G7v532kEOwFp9C76IE-53" target="c5G7v532kEOwFp9C76IE-58">
          <mxGeometry relative="1" as="geometry" />
        </mxCell>
        <mxCell id="c5G7v532kEOwFp9C76IE-53" value="Item" style="rounded=0;whiteSpace=wrap;html=1;fontFamily=Helvetica;fontSize=11;fontColor=default;labelBackgroundColor=default;" vertex="1" parent="1">
          <mxGeometry x="-70" y="160" width="80" height="30" as="geometry" />
        </mxCell>
        <mxCell id="c5G7v532kEOwFp9C76IE-57" style="edgeStyle=none;shape=connector;rounded=0;orthogonalLoop=1;jettySize=auto;html=1;exitX=1;exitY=1;exitDx=0;exitDy=0;entryX=0.25;entryY=0;entryDx=0;entryDy=0;strokeColor=default;align=center;verticalAlign=middle;fontFamily=Helvetica;fontSize=11;fontColor=default;labelBackgroundColor=default;endArrow=none;endFill=0;" edge="1" parent="1" source="c5G7v532kEOwFp9C76IE-54" target="c5G7v532kEOwFp9C76IE-53">
          <mxGeometry relative="1" as="geometry" />
        </mxCell>
        <mxCell id="c5G7v532kEOwFp9C76IE-54" value="name" style="ellipse;whiteSpace=wrap;html=1;fontFamily=Helvetica;fontSize=11;fontColor=default;labelBackgroundColor=default;" vertex="1" parent="1">
          <mxGeometry x="-120" y="110" width="50" height="30" as="geometry" />
        </mxCell>
        <mxCell id="c5G7v532kEOwFp9C76IE-59" style="edgeStyle=none;shape=link;rounded=0;orthogonalLoop=1;jettySize=auto;html=1;exitX=1;exitY=0.5;exitDx=0;exitDy=0;strokeColor=default;align=center;verticalAlign=middle;fontFamily=Helvetica;fontSize=11;fontColor=default;labelBackgroundColor=default;endArrow=none;endFill=0;" edge="1" parent="1" source="c5G7v532kEOwFp9C76IE-58" target="c5G7v532kEOwFp9C76IE-1">
          <mxGeometry relative="1" as="geometry" />
        </mxCell>
        <mxCell id="c5G7v532kEOwFp9C76IE-58" value="" style="rhombus;whiteSpace=wrap;html=1;fontFamily=Helvetica;fontSize=11;fontColor=default;labelBackgroundColor=default;" vertex="1" parent="1">
          <mxGeometry x="60" y="147.5" width="110" height="55" as="geometry" />
        </mxCell>
        <mxCell id="c5G7v532kEOwFp9C76IE-65" style="edgeStyle=none;shape=connector;rounded=0;orthogonalLoop=1;jettySize=auto;html=1;exitX=1;exitY=0;exitDx=0;exitDy=0;entryX=0.25;entryY=1;entryDx=0;entryDy=0;strokeColor=default;align=center;verticalAlign=middle;fontFamily=Helvetica;fontSize=11;fontColor=default;labelBackgroundColor=default;endArrow=none;endFill=0;" edge="1" parent="1" source="c5G7v532kEOwFp9C76IE-60" target="c5G7v532kEOwFp9C76IE-53">
          <mxGeometry relative="1" as="geometry" />
        </mxCell>
        <mxCell id="c5G7v532kEOwFp9C76IE-60" value="id" style="ellipse;whiteSpace=wrap;html=1;fontFamily=Helvetica;fontSize=11;fontColor=default;labelBackgroundColor=default;fontStyle=4" vertex="1" parent="1">
          <mxGeometry x="-110" y="208" width="50" height="30" as="geometry" />
        </mxCell>
        <mxCell id="c5G7v532kEOwFp9C76IE-61" value="has" style="rhombus;whiteSpace=wrap;html=1;fontFamily=Helvetica;fontSize=11;fontColor=default;labelBackgroundColor=default;" vertex="1" parent="1">
          <mxGeometry x="70" y="152.5" width="90" height="45" as="geometry" />
        </mxCell>
        <mxCell id="c5G7v532kEOwFp9C76IE-62" value="UnitItem" style="rounded=0;whiteSpace=wrap;html=1;fontFamily=Helvetica;fontSize=11;fontColor=default;labelBackgroundColor=default;" vertex="1" parent="1">
          <mxGeometry x="215" y="152.5" width="80" height="35" as="geometry" />
        </mxCell>
        <mxCell id="c5G7v532kEOwFp9C76IE-66" value="N" style="text;html=1;align=center;verticalAlign=middle;resizable=0;points=[];autosize=1;strokeColor=none;fillColor=none;fontFamily=Helvetica;fontSize=11;fontColor=default;labelBackgroundColor=default;" vertex="1" parent="1">
          <mxGeometry x="160" y="147.5" width="30" height="30" as="geometry" />
        </mxCell>
        <mxCell id="c5G7v532kEOwFp9C76IE-67" value="1" style="text;html=1;align=center;verticalAlign=middle;resizable=0;points=[];autosize=1;strokeColor=none;fillColor=none;fontFamily=Helvetica;fontSize=11;fontColor=default;labelBackgroundColor=default;" vertex="1" parent="1">
          <mxGeometry x="40" y="152.5" width="30" height="30" as="geometry" />
        </mxCell>
        <mxCell id="c5G7v532kEOwFp9C76IE-70" style="edgeStyle=none;shape=connector;rounded=0;orthogonalLoop=1;jettySize=auto;html=1;exitX=0.5;exitY=1;exitDx=0;exitDy=0;entryX=0.75;entryY=0;entryDx=0;entryDy=0;strokeColor=default;align=center;verticalAlign=middle;fontFamily=Helvetica;fontSize=11;fontColor=default;labelBackgroundColor=default;endArrow=none;endFill=0;" edge="1" parent="1" source="c5G7v532kEOwFp9C76IE-68" target="c5G7v532kEOwFp9C76IE-53">
          <mxGeometry relative="1" as="geometry" />
        </mxCell>
        <mxCell id="c5G7v532kEOwFp9C76IE-68" value="barcode" style="ellipse;whiteSpace=wrap;html=1;fontFamily=Helvetica;fontSize=11;fontColor=default;labelBackgroundColor=default;" vertex="1" parent="1">
          <mxGeometry x="-40" y="90" width="80" height="30" as="geometry" />
        </mxCell>
        <mxCell id="c5G7v532kEOwFp9C76IE-71" value="belong_to" style="rhombus;whiteSpace=wrap;html=1;fontFamily=Helvetica;fontSize=11;fontColor=default;labelBackgroundColor=default;" vertex="1" parent="1">
          <mxGeometry x="377.5" y="300" width="95" height="40" as="geometry" />
        </mxCell>
        <mxCell id="c5G7v532kEOwFp9C76IE-72" value="EventItem" style="rounded=0;whiteSpace=wrap;html=1;fontFamily=Helvetica;fontSize=11;fontColor=default;labelBackgroundColor=default;" vertex="1" parent="1">
          <mxGeometry x="215" y="307.5" width="80" height="25" as="geometry" />
        </mxCell>
      </root>
    </mxGraphModel>
  </diagram>
</mxfile>
